<svg width="36" height="36" viewBox="0 0 36 36" fill="none" xmlns="http://www.w3.org/2000/svg">
<path fill-rule="evenodd" clip-rule="evenodd" d="M19 25.586C19 27.367 21.1542 28.26 22.4141 27.0001L30.7067 18.7165C31.0974 18.3262 31.0978 17.693 30.7075 17.3023L22.4155 9.0003C21.1552 7.73999 19 8.63195 19 10.414V15.998H21L21.0009 10.4141L28.5858 18.0082L21 25.586V22.009C21 21.4567 20.5523 21.009 20 21.009H9V23.009H19V25.586ZM7.41247 13.9994L8.70711 12.7048C9.09763 12.3143 9.09763 11.6811 8.70711 11.2906C8.31658 10.9 7.68342 10.9 7.29289 11.2906L4.29289 14.2906C3.90237 14.6811 3.90237 15.3143 4.29289 15.7048L7.29289 18.7048C7.68342 19.0953 8.31658 19.0953 8.70711 18.7048C9.09763 18.3143 9.09763 17.6811 8.70711 17.2906L7.41596 15.9994L17.0002 15.9977L16.9998 13.9977L7.41247 13.9994Z" fill="#08A652"/>
</svg>
